<?xml version="1.0" standalone="no"?>
<!DOCTYPE svg PUBLIC "-//W3C//DTD SVG 20010904//EN"
 "http://www.w3.org/TR/2001/REC-SVG-20010904/DTD/svg10.dtd">
<svg version="1.0" xmlns="http://www.w3.org/2000/svg"
 width="224.000000pt" height="225.000000pt" viewBox="0 0 224.000000 225.000000"
 preserveAspectRatio="xMidYMid meet">

<g transform="translate(0.000000,225.000000) scale(0.100000,-0.100000)"
fill="#000000" stroke="none">
<path d="M270 2240 c-118 -8 -183 -48 -236 -142 l-29 -53 0 -920 0 -920 22
-42 c30 -56 88 -111 143 -137 45 -21 50 -21 950 -21 l905 0 46 23 c55 27 113
83 142 137 22 40 22 44 25 810 l3 770 -248 253 -248 252 -695 -2 c-382 0 -733
-4 -780 -8z m82 -466 c3 -319 4 -336 22 -350 29 -21 1183 -21 1212 0 18 14 19
31 22 350 l3 336 37 0 c35 0 50 -13 244 -207 l208 -208 0 -723 c0 -793 3 -757
-60 -802 -20 -14 -52 -24 -90 -27 l-59 -6 -3 510 c-2 414 -6 513 -17 526 -12
16 -77 17 -751 17 -674 0 -739 -1 -751 -17 -11 -13 -15 -112 -17 -526 l-3
-510 -60 7 c-37 3 -72 14 -90 27 -62 44 -59 -6 -59 957 l0 879 23 34 c29 44
80 69 139 69 l47 0 3 -336z m1118 53 l0 -282 -490 0 -490 0 0 282 0 283 490 0
490 0 0 -283z m280 -1227 l0 -460 -630 0 -630 0 0 460 0 460 630 0 630 0 0
-460z"/>
<path d="M1207 1957 c-15 -11 -17 -28 -15 -137 l3 -125 65 0 65 0 3 125 c2
109 0 126 -15 137 -22 17 -84 17 -106 0z"/>
<path d="M720 820 c-11 -11 -20 -31 -20 -45 0 -14 9 -34 20 -45 19 -19 33 -20
404 -20 l385 0 15 22 c22 31 20 64 -4 88 -19 19 -33 20 -400 20 -367 0 -381
-1 -400 -20z"/>
<path d="M720 470 c-24 -24 -26 -57 -4 -88 l15 -22 389 0 389 0 15 22 c22 31
20 64 -4 88 -19 19 -33 20 -400 20 -367 0 -381 -1 -400 -20z"/>
</g>
</svg>
