<?xml version="1.0" standalone="no"?>
<!DOCTYPE svg PUBLIC "-//W3C//DTD SVG 20010904//EN"
 "http://www.w3.org/TR/2001/REC-SVG-20010904/DTD/svg10.dtd">
<svg version="1.0" xmlns="http://www.w3.org/2000/svg"
 width="301.000000pt" height="167.000000pt" viewBox="0 0 301.000000 167.000000"
 preserveAspectRatio="xMidYMid meet">

<g transform="translate(0.000000,167.000000) scale(0.100000,-0.100000)"
fill="#000000" stroke="none">
<path d="M1254 1651 c-36 -22 -54 -65 -54 -126 l0 -42 -46 -6 c-32 -3 -54 -13
-75 -33 l-29 -28 0 -303 0 -303 -50 0 c-41 0 -56 -5 -75 -25 l-25 -24 0 -356
0 -356 25 -24 24 -25 556 0 556 0 24 25 25 24 0 356 0 356 -25 24 c-19 20 -34
25 -75 25 l-50 0 0 396 c0 264 -4 402 -11 416 -23 43 -60 48 -371 48 -270 0
-295 -2 -324 -19z m630 -57 c14 -13 16 -64 16 -400 l0 -384 -45 0 -45 0 0 207
0 208 -127 127 -128 128 -142 0 -143 0 0 55 c0 41 4 56 18 64 10 6 126 11 299
11 243 0 284 -2 297 -16z m-354 -264 c0 -73 3 -83 25 -105 22 -22 32 -25 105
-25 l80 0 0 -195 0 -195 -315 0 -315 0 0 288 c0 211 3 291 12 300 9 9 69 12
210 12 l198 0 0 -80z m460 -925 l0 -285 -485 0 -485 0 0 285 0 285 485 0 485
0 0 -285z"/>
<path d="M1272 584 c-20 -14 -22 -23 -22 -109 0 -72 4 -97 16 -109 23 -24 455
-24 478 0 12 12 16 37 16 109 0 91 -1 95 -26 112 -24 15 -29 15 -53 2 -23 -13
-26 -22 -29 -72 l-3 -57 -144 0 -145 0 0 54 c0 45 -4 58 -22 70 -12 9 -27 16
-33 16 -6 0 -21 -7 -33 -16z"/>
</g>
</svg>
